<?xml version="1.0" encoding="UTF-8" standalone="no"?>
<svg
   width="32px"
   height="32px"
   viewBox="0 0 32 32"
   version="1.1"
   id="svg4"
   sodipodi:docname="git.svg"
   inkscape:version="1.2 (dc2aedaf03, 2022-05-15)"
   xmlns:inkscape="http://www.inkscape.org/namespaces/inkscape"
   xmlns:sodipodi="http://sodipodi.sourceforge.net/DTD/sodipodi-0.dtd"
   xmlns:xlink="http://www.w3.org/1999/xlink"
   xmlns="http://www.w3.org/2000/svg"
   xmlns:svg="http://www.w3.org/2000/svg">
  <defs
     id="defs8">
    <linearGradient
       inkscape:collect="always"
       id="linearGradient3857">
      <stop
         style="stop-color:#ffbbaa;stop-opacity:1;"
         offset="0"
         id="stop3853" />
      <stop
         style="stop-color:#ff5e8c;stop-opacity:1;"
         offset="1"
         id="stop3855" />
    </linearGradient>
    <linearGradient
       inkscape:collect="always"
       xlink:href="#linearGradient3857"
       id="linearGradient3859"
       x1="0.00025"
       y1="16.0015"
       x2="32.00025"
       y2="16.0015"
       gradientUnits="userSpaceOnUse" />
  </defs>
  <sodipodi:namedview
     id="namedview6"
     pagecolor="#ffffff"
     bordercolor="#666666"
     borderopacity="1.0"
     inkscape:showpageshadow="2"
     inkscape:pageopacity="0.0"
     inkscape:pagecheckerboard="0"
     inkscape:deskcolor="#d1d1d1"
     showgrid="false"
     inkscape:zoom="19.75"
     inkscape:cx="16"
     inkscape:cy="16"
     inkscape:window-width="960"
     inkscape:window-height="1012"
     inkscape:window-x="103"
     inkscape:window-y="103"
     inkscape:window-maximized="0"
     inkscape:current-layer="svg4" />
  <path
     d="M31.396 14.573l-13.974-13.969c-0.802-0.807-2.109-0.807-2.917 0l-2.896 2.901 3.682 3.677c0.859-0.286 1.839-0.094 2.516 0.589 0.688 0.688 0.88 1.677 0.589 2.531l3.542 3.547c0.859-0.297 1.849-0.104 2.531 0.583 0.964 0.958 0.964 2.51 0 3.469-0.958 0.958-2.505 0.958-3.464 0-0.719-0.719-0.901-1.781-0.542-2.661l-3.318-3.302v8.703c0.234 0.115 0.458 0.271 0.651 0.464 0.953 0.964 0.953 2.51 0 3.469-0.958 0.958-2.516 0.958-3.479 0-0.958-0.958-0.958-2.505 0-3.469 0.245-0.24 0.516-0.417 0.807-0.536v-8.786c-0.286-0.125-0.563-0.297-0.802-0.536-0.724-0.724-0.901-1.786-0.526-2.677l-3.615-3.635-9.583 9.578c-0.797 0.802-0.797 2.109 0 2.917l13.974 13.969c0.807 0.807 2.109 0.807 2.917 0l13.906-13.906c0.807-0.802 0.807-2.109 0-2.917z"
     id="path2"
     style="fill-opacity:1;fill:url(#linearGradient3859)" />
</svg>
