<?xml version="1.0" encoding="UTF-8" standalone="no"?>
<svg
   width="64px"
   height="64px"
   viewBox="0 0 64 64"
   id="i-github"
   version="1.1"
   sodipodi:docname="github.svg"
   inkscape:version="1.2 (dc2aedaf03, 2022-05-15)"
   xmlns:inkscape="http://www.inkscape.org/namespaces/inkscape"
   xmlns:sodipodi="http://sodipodi.sourceforge.net/DTD/sodipodi-0.dtd"
   xmlns:xlink="http://www.w3.org/1999/xlink"
   xmlns="http://www.w3.org/2000/svg"
   xmlns:svg="http://www.w3.org/2000/svg">
  <defs
     id="defs1303">
    <linearGradient
       inkscape:collect="always"
       id="linearGradient3588">
      <stop
         style="stop-color:#ffbbaa;stop-opacity:1;"
         offset="0"
         id="stop3584" />
      <stop
         style="stop-color:#ff5e8c;stop-opacity:1;"
         offset="1"
         id="stop3586" />
    </linearGradient>
    <linearGradient
       inkscape:collect="always"
       xlink:href="#linearGradient3588"
       id="linearGradient3590"
       x1="0"
       y1="31"
       x2="64"
       y2="31"
       gradientUnits="userSpaceOnUse" />
  </defs>
  <sodipodi:namedview
     id="namedview1301"
     pagecolor="#ffffff"
     bordercolor="#666666"
     borderopacity="1.0"
     inkscape:showpageshadow="2"
     inkscape:pageopacity="0.0"
     inkscape:pagecheckerboard="0"
     inkscape:deskcolor="#d1d1d1"
     showgrid="false"
     inkscape:zoom="9.875"
     inkscape:cx="32"
     inkscape:cy="32"
     inkscape:window-width="960"
     inkscape:window-height="1012"
     inkscape:window-x="103"
     inkscape:window-y="103"
     inkscape:window-maximized="0"
     inkscape:current-layer="i-github" />
  <path
     stroke-width="0"
     fill="currentColor"
     d="M32 0 C14 0 0 14 0 32 0 53 19 62 22 62 24 62 24 61 24 60 L24 55 C17 57 14 53 13 50 13 50 13 49 11 47 10 46 6 44 10 44 13 44 15 48 15 48 18 52 22 51 24 50 24 48 26 46 26 46 18 45 12 42 12 31 12 27 13 24 15 22 15 22 13 18 15 13 15 13 20 13 24 17 27 15 37 15 40 17 44 13 49 13 49 13 51 20 49 22 49 22 51 24 52 27 52 31 52 42 45 45 38 46 39 47 40 49 40 52 L40 60 C40 61 40 62 42 62 45 62 64 53 64 32 64 14 50 0 32 0 Z"
     id="path1298"
     style="fill:url(#linearGradient3590);fill-opacity:1" />
</svg>
