<?xml version="1.0" encoding="UTF-8" standalone="no"?>
<svg
   version="1.1"
   xml:space="preserve"
   style="clip-rule:evenodd;fill-rule:evenodd;stroke-linejoin:round;stroke-miterlimit:2"
   viewBox="663.38 37.57 903.75004 903.75"
   id="svg22"
   sodipodi:docname="helix-editor.svg"
   width="903.75"
   height="903.75"
   inkscape:version="1.2.2 (b0a8486541, 2022-12-01)"
   xmlns:inkscape="http://www.inkscape.org/namespaces/inkscape"
   xmlns:sodipodi="http://sodipodi.sourceforge.net/DTD/sodipodi-0.dtd"
   xmlns="http://www.w3.org/2000/svg"
   xmlns:svg="http://www.w3.org/2000/svg"><defs
   id="defs26" /><sodipodi:namedview
   id="namedview24"
   pagecolor="#ffffff"
   bordercolor="#000000"
   borderopacity="0.25"
   inkscape:showpageshadow="2"
   inkscape:pageopacity="0.0"
   inkscape:pagecheckerboard="0"
   inkscape:deskcolor="#d1d1d1"
   showgrid="false"
   inkscape:zoom="0.48188105"
   inkscape:cx="230.3473"
   inkscape:cy="300.90413"
   inkscape:window-width="931"
   inkscape:window-height="993"
   inkscape:window-x="0"
   inkscape:window-y="0"
   inkscape:window-maximized="1"
   inkscape:current-layer="svg22" />
    <g
   transform="translate(-31188.504,-1817.2397)"
   id="g20">
        <g
   transform="translate(31062.7,-20.8972)"
   id="g18">
            <g
   transform="translate(-130.173,0.00185558)"
   id="g4">
                <path
   d="m 1083.58,1875.72 551.48,318.4 c 14.74,8.51 23.82,24.25 23.82,41.27 0,29.59 0,76.35 0,105.94 0,8.51 -2.27,16.7 -6.38,23.83 0,0 -437.8,-252.76 -545.3,-314.83 -14.62,-8.44 -23.62,-24.04 -23.62,-40.92 0,-45.91 0,-133.69 0,-133.69 z"
   style="fill:#706bc8"
   id="path2" />
            </g>
            <g
   transform="translate(-130.173,0.00185558)"
   id="g8">
                <path
   d="m 1635.26,2604.84 c 14.62,8.44 23.62,24.03 23.62,40.91 0,45.92 0,133.69 0,133.69 l -551.47,-318.39 c -14.75,-8.52 -23.83,-24.25 -23.83,-41.27 0,-29.59 0,-76.36 0,-105.94 0,-8.52 2.27,-16.71 6.38,-23.83 0,0 437.8,252.76 545.3,314.83 z"
   style="fill:#55c5e4"
   id="path6" />
            </g>
            <g
   transform="translate(216.062,984.098)"
   id="g12">
                <path
   d="m 790.407,1432.56 c -5.193,2.99 -9.69,7.34 -12.898,12.9 -9.647,16.7 -4.036,38.3 12.495,48.13 h -0.006 l -28.825,-16.64 c -14.746,-8.51 -23.829,-24.24 -23.829,-41.27 0,-29.59 0,-76.35 0,-105.94 0,-17.03 9.083,-32.76 23.829,-41.27 l 498.417,-287.73 0.24,-0.14 c 5.09,-2.983 9.5,-7.286 12.65,-12.756 9.65,-16.708 4.04,-38.3 -12.49,-48.137 h 0.01 l 28.82,16.642 c 14.75,8.513 23.83,24.246 23.83,41.273 0,29.588 0,76.348 0,105.938 0,17.03 -9.08,32.76 -23.83,41.27 l -29.63,17.11 0.4,-0.26 z"
   style="fill:#84ddea"
   id="path10" />
            </g>
            <g
   transform="translate(216.062,984.098)"
   id="g16">
                <path
   d="m 790.407,1686.24 c -5.193,2.99 -9.69,7.34 -12.898,12.89 -9.647,16.71 -4.036,38.3 12.495,48.14 h -0.006 l -28.825,-16.64 c -14.746,-8.51 -23.829,-24.25 -23.829,-41.27 0,-29.59 0,-76.35 0,-105.94 0,-17.03 9.083,-32.76 23.829,-41.27 l 498.417,-287.73 0.24,-0.14 c 5.09,-2.99 9.5,-7.29 12.65,-12.76 9.65,-16.71 4.04,-38.3 -12.49,-48.14 h 0.01 l 28.82,16.65 c 14.75,8.51 23.83,24.24 23.83,41.27 0,29.59 0,76.35 0,105.94 0,17.02 -9.08,32.76 -23.83,41.27 l -29.63,17.1 0.4,-0.25 z"
   style="fill:#997bc8"
   id="path14" />
            </g>
        </g>
    </g>
</svg>
