<?xml version="1.0" encoding="UTF-8" standalone="no"?>
<!-- Created with Inkscape (http://www.inkscape.org/) -->

<svg
   width="150mm"
   height="150mm"
   viewBox="0 0 150 150"
   version="1.1"
   id="svg5"
   sodipodi:docname="icon.svg"
   inkscape:version="1.2 (dc2aedaf03, 2022-05-15)"
   xmlns:inkscape="http://www.inkscape.org/namespaces/inkscape"
   xmlns:sodipodi="http://sodipodi.sourceforge.net/DTD/sodipodi-0.dtd"
   xmlns:xlink="http://www.w3.org/1999/xlink"
   xmlns="http://www.w3.org/2000/svg"
   xmlns:svg="http://www.w3.org/2000/svg">
  <sodipodi:namedview
     id="namedview7"
     pagecolor="#ffffff"
     bordercolor="#666666"
     borderopacity="1.0"
     inkscape:showpageshadow="2"
     inkscape:pageopacity="0.0"
     inkscape:pagecheckerboard="0"
     inkscape:deskcolor="#d1d1d1"
     inkscape:document-units="mm"
     showgrid="false"
     inkscape:zoom="0.70710678"
     inkscape:cx="540.93669"
     inkscape:cy="439.82042"
     inkscape:window-width="1920"
     inkscape:window-height="1012"
     inkscape:window-x="0"
     inkscape:window-y="0"
     inkscape:window-maximized="1"
     inkscape:current-layer="layer1">
    <inkscape:grid
       type="xygrid"
       id="grid1640"
       originx="0"
       originy="0" />
  </sodipodi:namedview>
  <defs
     id="defs2">
    <linearGradient
       inkscape:collect="always"
       id="linearGradient2412">
      <stop
         style="stop-color:#ff6217;stop-opacity:1;"
         offset="0"
         id="stop2408" />
      <stop
         style="stop-color:#5b15e3;stop-opacity:1;"
         offset="1"
         id="stop2410" />
    </linearGradient>
    <linearGradient
       inkscape:collect="always"
       xlink:href="#linearGradient2412"
       id="linearGradient2414"
       x1="103.88658"
       y1="149.34418"
       x2="197.38171"
       y2="149.34418"
       gradientUnits="userSpaceOnUse"
       gradientTransform="translate(-75.634147,-74.344184)" />
  </defs>
  <g
     inkscape:label="Ebene 1"
     inkscape:groupmode="layer"
     id="layer1">
    <path
       id="path2448"
       style="color:#000000;fill:url(#linearGradient2414);fill-opacity:1;stroke-width:1.00013;stroke-linecap:round;stroke-dasharray:none"
       d="m 117.32093,108.32184 -10.57812,12.44922 c -0.51677,0.51665 12.44921,-10.57813 12.44921,-10.57813 0.51677,-0.51665 0.51677,-1.35444 0,-1.87109 -0.51665,-0.51677 -1.35444,-0.51677 -1.87109,0 z M 119.4889,97.933156 94.613903,124.68121 c -0.51678,0.51666 26.746087,-24.876954 26.746087,-24.876954 0.51677,-0.51666 0.51677,-1.35444 0,-1.8711 -0.51665,-0.51677 -1.35444,-0.51677 -1.87109,0 z m -0.67578,-6.80664 -32.699217,34.570314 c -0.51677,0.51666 34.570307,-32.699214 34.570307,-32.699214 0.51677,-0.51666 0.51677,-1.35444 0,-1.8711 -0.51665,-0.51677 -1.35444,-0.51677 -1.87109,0 z m -2.17579,-6.04297 -38.927727,40.798844 c -0.51677,0.51665 40.798827,-38.927744 40.798827,-38.927744 0.51677,-0.51666 0.51677,-1.35444 0,-1.8711 -0.51666,-0.51677 -1.35444,-0.51677 -1.8711,0 z m -2.56054,-5.36132 c -0.35079,-2.3e-4 -0.6873,0.13887 -0.93555,0.38671 l -16.259767,18.13087 c -0.51677,0.51664 18.130857,-16.25977 18.130857,-16.25977 0.51677,-0.51666 0.51677,-1.35444 0,-1.8711 -0.24824,-0.24784 -0.58476,-0.38694 -0.93554,-0.38671 z m -27.244137,26.693364 -17.59375,19.4668 c -0.51677,0.51665 19.46484,-17.59571 19.46484,-17.59571 0.51677,-0.51665 0.51677,-1.35444 0,-1.87109 -0.51665,-0.51677 -1.35444,-0.51677 -1.87109,0 z M 108.7096,76.321836 96.016243,90.884336 c -0.51677,0.51664 14.562497,-12.69141 14.562497,-12.69141 0.51677,-0.51665 0.51677,-1.35444 0,-1.87109 -0.51643,-0.51547 -1.35271,-0.51547 -1.86914,0 z M 78.526013,107.0523 c -0.35079,-2.3e-4 -0.68731,0.13887 -0.93555,0.38672 l -16.57129,18.44337 c -0.51677,0.51665 18.44238,-16.57227 18.44238,-16.57227 0.51677,-0.51666 0.51677,-1.35444 0,-1.8711 -0.24824,-0.24784 -0.58476,-0.38695 -0.93554,-0.38672 z M 103.68616,73.653866 92.474253,86.735896 c -0.51677,0.51665 13.083007,-11.21094 13.083007,-11.21094 0.51677,-0.51665 0.51677,-1.35444 0,-1.87109 -0.51666,-0.51677 -1.35444,-0.51677 -1.8711,0 z M 70.836553,107.0523 c -0.35078,-2.3e-4 -0.6873,0.13888 -0.93554,0.38672 l -16.57227,18.44337 c -0.51677,0.51665 18.44336,-16.57227 18.44336,-16.57227 0.51677,-0.51666 0.51677,-1.35444 0,-1.8711 -0.24824,-0.24785 -0.58476,-0.38695 -0.93555,-0.38672 z M 115.06116,54.606986 c -0.35078,-2.3e-4 -0.6873,0.13888 -0.93554,0.38672 l -27.478517,29.34961 c -0.51677,0.51666 29.349607,-27.47852 29.349607,-27.47852 0.51677,-0.51665 0.51677,-1.35444 0,-1.87109 -0.24824,-0.24785 -0.58476,-0.38695 -0.93555,-0.38672 z m -53.380857,52.832034 -16.57226,18.44337 c -0.51677,0.51665 18.44336,-16.57227 18.44336,-16.57227 0.51677,-0.51666 0.51677,-1.35444 0,-1.8711 -0.51666,-0.51677 -1.35444,-0.51677 -1.8711,0 z M 114.15296,46.495656 78.967423,83.552306 c -0.51677,0.51665 37.056627,-35.18555 37.056627,-35.18555 0.51677,-0.51666 0.51677,-1.35444 0,-1.8711 -0.51665,-0.51677 -1.35444,-0.51677 -1.87109,0 z M 54.145153,107.0523 c -0.35079,-2.3e-4 -0.68731,0.13887 -0.93555,0.38672 l -16.57227,18.44337 c -0.51676,0.51665 18.44336,-16.57227 18.44336,-16.57227 0.51677,-0.51666 0.51677,-1.35444 0,-1.8711 -0.24824,-0.24784 -0.58476,-0.38695 -0.93554,-0.38672 z M 112.20374,40.226126 70.752573,83.548386 c -0.51677,0.51666 43.322257,-41.45116 43.322257,-41.45116 0.51677,-0.51666 0.51677,-1.35444 0,-1.8711 -0.51665,-0.51677 -1.35444,-0.51677 -1.87109,0 z m -61.734367,61.732424 -22.05078,23.92384 c -0.51677,0.51665 23.92187,-22.05274 23.92187,-22.05274 0.51677,-0.51666 0.51677,-1.35444 0,-1.8711 -0.51665,-0.51677 -1.35444,-0.51677 -1.87109,0 z M 109.73499,34.794486 c -0.35107,2.9e-4 -0.68763,0.14011 -0.93555,0.38867 l -16.810547,18.67969 c -0.51677,0.51666 18.681647,-16.80859 18.681647,-16.80859 0.51677,-0.51666 0.51677,-1.35444 0,-1.8711 -0.24792,-0.24856 -0.58448,-0.38838 -0.93555,-0.38867 z m -30.189447,30.18945 c -0.35079,-2.3e-4 -0.68731,0.13887 -0.93555,0.38672 l -16.30566,18.17773 c -0.51677,0.51666 18.17675,-16.30663 18.17675,-16.30663 0.51677,-0.51666 0.51677,-1.35444 0,-1.8711 -0.24824,-0.24784 -0.58476,-0.38695 -0.93554,-0.38672 z m -29.07617,28.52735 -22.16797,24.039064 c -0.51678,0.51666 24.03906,-22.167974 24.03906,-22.167974 0.51677,-0.51665 0.51677,-1.35444 0,-1.87109 -0.51665,-0.51677 -1.35444,-0.51677 -1.87109,0 z m 53.843747,-62.2168 -14.617187,16.48633 c -0.51678,0.51666 16.488277,-14.61523 16.488277,-14.61523 0.51677,-0.51666 0.51677,-1.35444 0,-1.8711 -0.51665,-0.51677 -1.35444,-0.51677 -1.87109,0 z m -34.386717,34.38477 -15.99805,17.86913 c -0.51677,0.51666 17.86914,-15.99804 17.86914,-15.99804 0.51677,-0.51665 0.51677,-1.35444 0,-1.87109 -0.51665,-0.51677 -1.35444,-0.51677 -1.87109,0 z m -19.45703,19.45703 -22.16797,24.039064 c -0.51678,0.51666 24.03906,-22.167974 24.03906,-22.167974 0.51677,-0.51665 0.51677,-1.35444 0,-1.87109 -0.51665,-0.51677 -1.35444,-0.51677 -1.87109,0 z m 48.41796,-56.77344 -14.21386,16.08399 c -0.51677,0.51665 16.082997,-14.21289 16.082997,-14.21289 0.51677,-0.51666 0.51677,-1.35444 0,-1.8711 -0.51643,-0.51547 -1.352707,-0.51547 -1.869137,0 z m -37.31836,37.31641 -33.26757,35.138674 c -0.51678,0.51666 35.13867,-33.267584 35.13867,-33.267584 0.51677,-0.51665 0.51677,-1.35444 0,-1.87109 -0.51666,-0.51677 -1.35444,-0.51677 -1.8711,0 z m 32.18555,-39.73047 c -0.35107,2.9e-4 -0.68763,0.14011 -0.93555,0.38867 l -14.86328,16.73437 c -0.51676,0.51666 16.73438,-14.86328 16.73438,-14.86328 0.51677,-0.51665 0.51677,-1.35444 0,-1.87109 -0.24792,-0.24856 -0.58448,-0.38838 -0.93555,-0.38867 z m -39.34375,39.34375 c -0.35079,-2.3e-4 -0.68731,0.13887 -0.93555,0.38672 l -25.17382,27.0459 c -0.51547,0.51643 27.04492,-25.17481 27.04492,-25.17481 0.51677,-0.51665 0.51677,-1.35444 0,-1.87109 -0.24824,-0.24785 -0.58476,-0.38695 -0.93555,-0.38672 z m 31.67188,-40.212892 -15.98633,17.857422 c -0.51677,0.51666 17.85742,-15.98633 17.85742,-15.98633 0.51677,-0.51665 0.51677,-1.354438 0,-1.871092 -0.51665,-0.516768 -1.35444,-0.516768 -1.87109,0 z m -34.67774,35.224612 c -0.35106,2.9e-4 -0.68762,0.14011 -0.93554,0.38867 l -22.16797,24.03906 c -0.51678,0.51666 24.03906,-22.16797 24.03906,-22.16797 0.51677,-0.51665 0.51677,-1.35444 0,-1.87109 -0.24792,-0.24856 -0.58448,-0.38838 -0.93555,-0.38867 z M 78.414683,24.52105 61.867803,42.937066 c -0.51677,0.51666 18.41797,-16.54492 18.41797,-16.54492 0.51677,-0.51665 0.51677,-1.354441 0,-1.871096 -0.51665,-0.516768 -1.35444,-0.516768 -1.87109,0 z m -27.94531,27.943356 -22.16797,24.03907 c -0.51677,0.51665 24.03906,-22.16797 24.03906,-22.16797 0.51677,-0.51666 0.51677,-1.35444 0,-1.8711 -0.51665,-0.51677 -1.35444,-0.51677 -1.87109,0 z m 20.5957,-28.357418 c -0.35079,-2.29e-4 -0.68731,0.138874 -0.93555,0.386719 l -16.57031,18.443359 c -0.51677,0.51666 18.44141,-16.57227 18.44141,-16.57227 0.51677,-0.51665 0.51677,-1.354435 0,-1.871089 -0.24824,-0.247845 -0.58476,-0.386948 -0.93555,-0.386719 z m -20.5957,20.046878 -22.16797,24.03906 c -0.51678,0.51666 24.03906,-22.16797 24.03906,-22.16797 0.51677,-0.51665 0.51677,-1.35444 0,-1.87109 -0.51665,-0.51677 -1.35444,-0.51677 -1.87109,0 z m 12.58593,-20.046878 c -0.35107,2.92e-4 -0.68762,0.140114 -0.93554,0.388672 l -33.81836,35.687506 c -0.51677,0.51665 35.68945,-33.81837 35.68945,-33.81837 0.51547,-0.51643 0.51547,-1.352706 0,-1.869136 -0.24792,-0.248561 -0.58448,-0.388383 -0.93555,-0.388672 z m -7.89258,0 c -0.35078,-2.26e-4 -0.6873,0.138877 -0.93554,0.386719 l -25.92578,27.796879 c -0.51677,0.51665 27.79687,-25.92579 27.79687,-25.92579 0.51677,-0.51665 0.51677,-1.354435 0,-1.871089 -0.24824,-0.247845 -0.58476,-0.386948 -0.93555,-0.386719 z m -9.13085,0.386719 -17.73047,19.601569 c -0.51677,0.51665 19.60156,-17.73048 19.60156,-17.73048 0.51677,-0.51665 0.51677,-1.354435 0,-1.871089 -0.51665,-0.516768 -1.35444,-0.516768 -1.87109,0 z m -8.30079,0.002 -9.42968,11.299809 c -0.51547,0.51643 11.30078,-9.43067 11.30078,-9.43067 0.51547,-0.51643 0.51547,-1.352709 0,-1.869139 -0.51666,-0.516774 -1.35444,-0.516774 -1.8711,0 z m -8.07421,0 -1.35547,3.226569 c -0.51677,0.51665 3.22656,-1.35743 3.22656,-1.35743 0.51547,-0.51643 0.51547,-1.352709 0,-1.869139 -0.51665,-0.516768 -1.35444,-0.516768 -1.87109,0 z" />
  </g>
</svg>
