<?xml version="1.0" encoding="UTF-8" standalone="no"?>
<!-- Created with Inkscape (http://www.inkscape.org/) -->

<svg
   width="1024"
   height="1024"
   viewBox="0 0 270.93332 270.93334"
   version="1.1"
   id="svg5"
   inkscape:version="1.2 (dc2aedaf03, 2022-05-15)"
   sodipodi:docname="icon.svg"
   inkscape:export-filename="/home/bnyro/Downloads/logo.png"
   inkscape:export-xdpi="96"
   inkscape:export-ydpi="96"
   xmlns:inkscape="http://www.inkscape.org/namespaces/inkscape"
   xmlns:sodipodi="http://sodipodi.sourceforge.net/DTD/sodipodi-0.dtd"
   xmlns:xlink="http://www.w3.org/1999/xlink"
   xmlns="http://www.w3.org/2000/svg"
   xmlns:svg="http://www.w3.org/2000/svg">
  <sodipodi:namedview
     id="namedview7"
     pagecolor="#505050"
     bordercolor="#eeeeee"
     borderopacity="1"
     inkscape:pageshadow="0"
     inkscape:pageopacity="0"
     inkscape:pagecheckerboard="0"
     inkscape:document-units="px"
     showgrid="false"
     inkscape:zoom="0.5"
     inkscape:cx="-96"
     inkscape:cy="766"
     inkscape:window-width="1920"
     inkscape:window-height="1012"
     inkscape:window-x="0"
     inkscape:window-y="0"
     inkscape:window-maximized="1"
     inkscape:current-layer="layer1"
     units="px"
     inkscape:object-paths="true"
     inkscape:snap-intersection-paths="true"
     inkscape:snap-smooth-nodes="true"
     inkscape:showpageshadow="2"
     inkscape:deskcolor="#505050" />
  <defs
     id="defs2">
    <linearGradient
       inkscape:collect="always"
       id="linearGradient4828">
      <stop
         style="stop-color:#ffbbaa;stop-opacity:1;"
         offset="0"
         id="stop4824" />
      <stop
         style="stop-color:#ff378c;stop-opacity:1;"
         offset="0.98960191"
         id="stop4826" />
    </linearGradient>
    <linearGradient
       inkscape:collect="always"
       xlink:href="#linearGradient4828"
       id="linearGradient9516"
       x1="802.42407"
       y1="679.3689"
       x2="362"
       y2="247.25781"
       gradientUnits="userSpaceOnUse"
       gradientTransform="matrix(0.43401475,0,0,0.43401475,-86.748883,-62.248515)" />
    <linearGradient
       inkscape:collect="always"
       xlink:href="#linearGradient4828"
       id="linearGradient9988"
       x1="362"
       y1="512"
       x2="662"
       y2="512"
       gradientUnits="userSpaceOnUse"
       gradientTransform="matrix(0.43401475,0,0,0.43401475,-86.748883,-62.248515)" />
  </defs>
  <circle
     style="opacity:1;mix-blend-mode:normal;fill:#ececec;stroke-width:0.264583"
     id="path4947"
     cx="135.46666"
     cy="135.46666"
     r="131.64467" />
  <g
     inkscape:label="Ebene 1"
     inkscape:groupmode="layer"
     id="layer1"
     style="opacity:1;mix-blend-mode:normal">
    <g
       id="g4971">
      <path
         id="path5786"
         style="opacity:1;mix-blend-mode:normal;fill:url(#linearGradient9988);fill-opacity:1;stroke:#ff0000;stroke-width:0;stroke-opacity:1"
         d="m 135.46666,94.864829 a 65.102209,65.102209 0 0 0 -65.102207,65.102191 65.102209,65.102209 0 0 0 65.102207,65.10222 65.102209,65.102209 0 0 0 65.10222,-65.10222 65.102209,65.102209 0 0 0 -65.10222,-65.102191 z m 0,32.551111 a 32.551103,32.551103 0 0 1 32.5511,32.55108 32.551103,32.551103 0 0 1 -32.5511,32.55112 32.551103,32.551103 0 0 1 -32.55111,-32.55112 32.551103,32.551103 0 0 1 32.55111,-32.55108 z" />
      <path
         id="rect6907"
         style="opacity:1;mix-blend-mode:normal;fill:url(#linearGradient9516);fill-opacity:1;stroke:#000000;stroke-width:0"
         d="M 70.364453,45.065022 V 159.53302 h 0.03137 a 65.102209,65.102209 0 0 0 -0.03137,0.434 65.102209,65.102209 0 0 0 47.323717,62.54306 49.519729,49.226375 0 0 0 17.77849,3.35853 49.519729,49.226375 0 0 0 49.52007,-49.22592 49.519729,49.226375 0 0 0 -49.52007,-49.22675 32.551103,32.551103 0 0 1 32.5511,32.55108 32.551103,32.551103 0 0 1 -32.5511,32.55112 32.551103,32.551103 0 0 1 -32.55111,-32.55026 v -0.002 -82.350057 c 0,-18.03331 -14.517786,-32.551099 -32.551097,-32.551099 z" />
    </g>
  </g>
</svg>
