<?xml version="1.0" encoding="UTF-8" standalone="no"?>
<svg
   viewBox="0 0 48 48"
   width="48px"
   height="48px"
   version="1.1"
   id="svg6"
   sodipodi:docname="python.svg"
   inkscape:version="1.2.1 (9c6d41e410, 2022-07-14, custom)"
   xmlns:inkscape="http://www.inkscape.org/namespaces/inkscape"
   xmlns:sodipodi="http://sodipodi.sourceforge.net/DTD/sodipodi-0.dtd"
   xmlns="http://www.w3.org/2000/svg"
   xmlns:svg="http://www.w3.org/2000/svg">
  <defs
     id="defs10" />
  <sodipodi:namedview
     id="namedview8"
     pagecolor="#ffffff"
     bordercolor="#000000"
     borderopacity="0.25"
     inkscape:showpageshadow="2"
     inkscape:pageopacity="0.0"
     inkscape:pagecheckerboard="0"
     inkscape:deskcolor="#d1d1d1"
     showgrid="false"
     inkscape:zoom="16.729167"
     inkscape:cx="24"
     inkscape:cy="24.059776"
     inkscape:window-width="945"
     inkscape:window-height="1021"
     inkscape:window-x="0"
     inkscape:window-y="0"
     inkscape:window-maximized="1"
     inkscape:current-layer="svg6" />
  <path
     fill="#0277bd"
     d="m 24.151567,0.89509679 c -1.890954,0.00608 -3.201853,0.17267871 -4.786364,0.44628941 -4.67935,0.8147519 -5.5318,2.5257308 -5.5318,5.678942 V 11.839525 H 24.777832 V 14.27162 H 13.417515 8.1277086 c -3.2055013,0 -6.010923,1.51033 -6.8998537,5.130504 -1.00445532,4.155234 -1.04944908,6.757576 0,11.096434 0.7965111,3.235902 2.5512677,5.661917 5.757985,5.661917 h 4.4166851 v -6.206707 c 0,-3.606796 3.266304,-7.169815 7.009298,-7.169815 h 8.79932 c 3.068088,0 6.080237,-2.264281 6.080237,-5.32264 V 7.0203282 c 0,-2.9659399 -2.139027,-5.1840106 -5.129288,-5.6813741 0.07418,-0.0073 -2.135379,-0.45115368 -4.010525,-0.44385731 z M 18.090786,5.7592869 c 0.998375,0 1.824071,0.8232642 1.824071,1.8265034 0,1.0129676 -0.825696,1.8216388 -1.824071,1.8216388 -1.017832,0 -1.824071,-0.8074551 -1.824071,-1.8216388 0,-0.999591 0.806239,-1.8265034 1.824071,-1.8265034 z"
     id="path2"
     style="stroke-width:1.21605" />
  <path
     fill="#ffc107"
     d="m 22.973217,47.104904 c 1.890954,-0.0061 3.201853,-0.172679 4.786363,-0.44629 4.679351,-0.814752 5.5318,-2.525731 5.5318,-5.678942 V 36.160475 H 22.346953 V 33.72838 h 11.361532 5.289806 c 3.205502,0 6.010924,-1.51033 6.899854,-5.130504 1.004455,-4.155234 1.04945,-6.757576 0,-11.096434 -0.797727,-3.235902 -2.552484,-5.661917 -5.759201,-5.661917 H 35.72226 v 6.206707 c 0,3.606796 -3.266304,7.169815 -7.009299,7.169815 h -8.799319 c -3.068089,0 -6.080239,2.264281 -6.080239,5.32264 v 10.440985 c 0,2.96594 2.139029,5.184011 5.12929,5.681374 -0.07418,0.0073 2.135379,0.451153 4.010524,0.443858 z m 6.061997,-4.86419 c -0.998375,0 -1.824071,-0.823265 -1.824071,-1.826505 0,-1.012966 0.825696,-1.821638 1.824071,-1.821638 1.017832,0 1.824071,0.807455 1.824071,1.821638 0,0.999592 -0.807456,1.826505 -1.824071,1.826505 z"
     id="path4"
     style="stroke-width:1.21605" />
</svg>
