<?xml version="1.0" encoding="UTF-8" standalone="no"?>
<svg
   width="24px"
   height="24px"
   viewBox="0 0 24 24"
   version="1.1"
   id="svg543"
   sodipodi:docname="python.svg"
   inkscape:version="1.2 (dc2aedaf03, 2022-05-15)"
   xmlns:inkscape="http://www.inkscape.org/namespaces/inkscape"
   xmlns:sodipodi="http://sodipodi.sourceforge.net/DTD/sodipodi-0.dtd"
   xmlns:xlink="http://www.w3.org/1999/xlink"
   xmlns="http://www.w3.org/2000/svg"
   xmlns:svg="http://www.w3.org/2000/svg">
  <defs
     id="defs547">
    <linearGradient
       inkscape:collect="always"
       id="linearGradient4899">
      <stop
         style="stop-color:#ffbbaa;stop-opacity:1;"
         offset="0"
         id="stop4895" />
      <stop
         style="stop-color:#ff5e8c;stop-opacity:1;"
         offset="1"
         id="stop4897" />
    </linearGradient>
    <linearGradient
       inkscape:collect="always"
       xlink:href="#linearGradient4899"
       id="linearGradient4903"
       x1="0.001"
       y1="11.999"
       x2="23.739"
       y2="11.999"
       gradientUnits="userSpaceOnUse" />
  </defs>
  <sodipodi:namedview
     id="namedview545"
     pagecolor="#ffffff"
     bordercolor="#666666"
     borderopacity="1.0"
     inkscape:showpageshadow="2"
     inkscape:pageopacity="0.0"
     inkscape:pagecheckerboard="0"
     inkscape:deskcolor="#d1d1d1"
     showgrid="false"
     inkscape:zoom="26.333333"
     inkscape:cx="12"
     inkscape:cy="12"
     inkscape:window-width="960"
     inkscape:window-height="1012"
     inkscape:window-x="103"
     inkscape:window-y="103"
     inkscape:window-maximized="0"
     inkscape:current-layer="svg543" />
  <g
     id="g4870"
     style="fill-opacity:1;fill:url(#linearGradient4903)">
    <path
       d="m11.727 0c-.967.001-1.914.086-2.834.248l.098-.014c-2.423.428-2.862 1.324-2.862 2.976v2.182h5.726v.727h-7.874c-.02 0-.043-.001-.066-.001-1.737 0-3.184 1.239-3.507 2.881l-.004.023c-.256.872-.403 1.874-.403 2.91s.147 2.038.422 2.985l-.019-.076c.407 1.695 1.379 2.902 3.04 2.902h1.969v-2.616c.045-1.953 1.622-3.523 3.574-3.557h.003 5.719c1.584-.013 2.863-1.299 2.863-2.885 0-.009 0-.017 0-.026v.001-5.452c-.104-1.561-1.314-2.81-2.848-2.975l-.014-.001c-.866-.149-1.863-.234-2.879-.234-.036 0-.071 0-.107 0h.005zm-3.096 1.755h.017c.603 0 1.091.489 1.091 1.091s-.489 1.091-1.091 1.091c-.601 0-1.089-.487-1.091-1.088 0-.002 0-.005 0-.008 0-.596.48-1.08 1.074-1.086h.001z"
       id="path539"
       style="fill-opacity:1;fill:url(#linearGradient4903)" />
    <path
       d="m18.287 6.119v2.542c-.022 1.977-1.604 3.578-3.572 3.63h-.005-5.719c-1.584.033-2.856 1.322-2.862 2.909v5.453c0 1.551 1.349 2.464 2.862 2.91.855.277 1.839.437 2.86.437s2.005-.16 2.927-.456l-.068.019c1.44-.417 2.862-1.258 2.862-2.91v-2.184h-5.719v-.727h8.582c1.664 0 2.284-1.161 2.863-2.902.28-.87.441-1.871.441-2.91s-.161-2.04-.46-2.979l.019.07c-.411-1.656-1.2-2.902-2.863-2.902zm-3.216 13.807h.017c.603 0 1.091.489 1.091 1.091s-.489 1.091-1.091 1.091c-.603 0-1.091-.489-1.091-1.091 0-.001 0-.003 0-.004 0-.002 0-.005 0-.007 0-.595.48-1.077 1.074-1.08z"
       id="path541"
       style="fill-opacity:1;fill:url(#linearGradient4903)" />
  </g>
</svg>
