<?xml version="1.0" encoding="UTF-8" standalone="no"?>
<svg
   width="15px"
   height="15px"
   viewBox="0 0 15 15"
   fill="none"
   version="1.1"
   id="svg1551"
   sodipodi:docname="telegram.svg"
   inkscape:version="1.2 (dc2aedaf03, 2022-05-15)"
   xmlns:inkscape="http://www.inkscape.org/namespaces/inkscape"
   xmlns:sodipodi="http://sodipodi.sourceforge.net/DTD/sodipodi-0.dtd"
   xmlns:xlink="http://www.w3.org/1999/xlink"
   xmlns="http://www.w3.org/2000/svg"
   xmlns:svg="http://www.w3.org/2000/svg">
  <defs
     id="defs1555">
    <linearGradient
       inkscape:collect="always"
       id="linearGradient3702">
      <stop
         style="stop-color:#ffbbaa;stop-opacity:1;"
         offset="0"
         id="stop3698" />
      <stop
         style="stop-color:#ff5e8c;stop-opacity:1;"
         offset="1"
         id="stop3700" />
    </linearGradient>
    <linearGradient
       inkscape:collect="always"
       xlink:href="#linearGradient3702"
       id="linearGradient3706"
       x1="2.4075177e-09"
       y1="7.4999871"
       x2="14.999998"
       y2="7.4999871"
       gradientUnits="userSpaceOnUse" />
  </defs>
  <sodipodi:namedview
     id="namedview1553"
     pagecolor="#ffffff"
     bordercolor="#666666"
     borderopacity="1.0"
     inkscape:showpageshadow="2"
     inkscape:pageopacity="0.0"
     inkscape:pagecheckerboard="0"
     inkscape:deskcolor="#d1d1d1"
     showgrid="false"
     inkscape:zoom="42.133333"
     inkscape:cx="7.5"
     inkscape:cy="7.5"
     inkscape:window-width="960"
     inkscape:window-height="1012"
     inkscape:window-x="103"
     inkscape:window-y="103"
     inkscape:window-maximized="0"
     inkscape:current-layer="svg1551" />
  <path
     d="M14.9932 1.58221C15.0223 1.40736 14.9567 1.23016 14.8208 1.11645C14.6848 1.00274 14.4988 0.969519 14.3318 1.02914L0.331836 6.02914C0.143209 6.0965 0.0129867 6.26994 0.000913704 6.46987C-0.0111592 6.6698 0.0972469 6.85765 0.276398 6.94722L4.2764 8.94722C4.43688 9.02746 4.62806 9.01556 4.77735 8.91603L8.09775 6.70244L6.10957 9.18766C6.02203 9.29709 5.98442 9.43824 6.00592 9.57672C6.02742 9.7152 6.10605 9.8383 6.22265 9.91603L12.2227 13.916C12.3638 14.0101 12.5431 14.0262 12.6988 13.9588C12.8545 13.8914 12.9653 13.7496 12.9932 13.5822L14.9932 1.58221Z"
     fill="black"
     id="path1549"
     style="fill-opacity:1;fill:url(#linearGradient3706)" />
</svg>
